<svg xmlns="http://www.w3.org/2000/svg" xmlns:xlink="http://www.w3.org/1999/xlink" width="500" zoomAndPan="magnify" viewBox="0 0 375 374.999991" height="500" preserveAspectRatio="xMidYMid meet" version="1.0"><defs><clipPath id="b18c35589b"><path d="M 152.0625 112.5 L 223 112.5 L 223 262.5 L 152.0625 262.5 Z M 152.0625 112.5 " clip-rule="nonzero"/></clipPath></defs><g clip-path="url(#b18c35589b)"><path fill="#f5f5f5" d="M 206.585938 137.378906 L 222.9375 137.378906 L 222.9375 112.726562 L 202.058594 112.726562 L 202.058594 112.820312 C 174.609375 113.828125 168.949219 129.203125 168.476562 145.460938 L 168.414062 145.460938 L 168.414062 162.566406 L 152.0625 162.566406 L 152.0625 187.25 L 168.414062 187.25 L 168.414062 262.273438 L 197.75 262.273438 L 197.75 187.25 L 218.785156 187.25 L 222.9375 162.566406 L 197.75 162.566406 L 197.75 147.25 C 197.75 141.8125 201.398438 137.378906 206.585938 137.378906 Z M 206.585938 137.378906 " fill-opacity="1" fill-rule="nonzero"/></g></svg>