<svg xmlns="http://www.w3.org/2000/svg" xmlns:xlink="http://www.w3.org/1999/xlink" width="500" zoomAndPan="magnify" viewBox="0 0 375 374.999991" height="500" preserveAspectRatio="xMidYMid meet" version="1.0"><defs><clipPath id="8f57eec33c"><path d="M 112.5 112.5 L 262.5 112.5 L 262.5 262.5 L 112.5 262.5 Z M 112.5 112.5 " clip-rule="nonzero"/></clipPath></defs><g clip-path="url(#8f57eec33c)"><path fill="#f5f5f5" d="M 226.09375 262.5 L 149.304688 262.5 C 129.011719 262.5 112.699219 246.1875 112.699219 225.894531 L 112.699219 149.105469 C 112.699219 128.8125 129.011719 112.5 149.304688 112.5 L 225.695312 112.5 C 245.988281 112.5 262.300781 128.8125 262.300781 149.105469 L 262.300781 225.496094 C 262.300781 245.789062 245.988281 262.101562 225.695312 262.101562 Z M 149.304688 124.4375 C 135.777344 124.4375 124.636719 135.578125 124.636719 149.105469 L 124.636719 225.496094 C 124.636719 239.023438 135.777344 250.164062 149.304688 250.164062 L 225.695312 250.164062 C 239.222656 250.164062 250.363281 239.023438 250.363281 225.496094 L 250.363281 149.105469 C 250.363281 135.578125 239.222656 124.4375 225.695312 124.4375 Z M 149.304688 124.4375 " fill-opacity="1" fill-rule="nonzero"/></g><path fill="#f5f5f5" d="M 187.898438 235.84375 C 161.636719 235.84375 140.550781 214.753906 140.550781 188.496094 C 140.550781 162.234375 161.636719 141.148438 187.898438 141.148438 C 214.15625 141.148438 235.246094 162.234375 235.246094 188.496094 C 235.246094 214.753906 214.15625 235.84375 187.898438 235.84375 Z M 187.898438 152.6875 C 168.003906 152.6875 152.089844 168.601562 152.089844 188.496094 C 152.089844 208.386719 168.003906 224.304688 187.898438 224.304688 C 207.792969 224.304688 223.707031 208.386719 223.707031 188.496094 C 223.707031 168.601562 207.792969 152.6875 187.898438 152.6875 Z M 187.898438 152.6875 " fill-opacity="1" fill-rule="nonzero"/><path fill="#f5f5f5" d="M 187.898438 209.980469 C 175.960938 209.980469 166.414062 200.429688 166.414062 188.496094 C 166.414062 176.558594 175.960938 167.007812 187.898438 167.007812 C 199.835938 167.007812 209.382812 176.558594 209.382812 188.496094 C 209.382812 200.429688 199.835938 209.980469 187.898438 209.980469 Z M 187.898438 178.945312 C 182.726562 178.945312 178.347656 183.324219 178.347656 188.496094 C 178.347656 193.667969 182.726562 198.042969 187.898438 198.042969 C 193.070312 198.042969 197.445312 193.667969 197.445312 188.496094 C 197.445312 183.324219 193.070312 178.945312 187.898438 178.945312 Z M 187.898438 178.945312 " fill-opacity="1" fill-rule="nonzero"/><path fill="#f5f5f5" d="M 239.222656 143.933594 C 239.222656 144.453125 239.171875 144.972656 239.070312 145.484375 C 238.96875 145.996094 238.816406 146.496094 238.617188 146.976562 C 238.417969 147.460938 238.171875 147.917969 237.882812 148.351562 C 237.59375 148.789062 237.261719 149.191406 236.894531 149.558594 C 236.523438 149.929688 236.121094 150.257812 235.6875 150.546875 C 235.253906 150.839844 234.792969 151.085938 234.3125 151.285156 C 233.828125 151.484375 233.332031 151.636719 232.820312 151.738281 C 232.304688 151.839844 231.789062 151.890625 231.265625 151.890625 C 230.742188 151.890625 230.226562 151.839844 229.714844 151.738281 C 229.203125 151.636719 228.703125 151.484375 228.222656 151.285156 C 227.738281 151.085938 227.28125 150.839844 226.84375 150.546875 C 226.410156 150.257812 226.007812 149.929688 225.640625 149.558594 C 225.269531 149.191406 224.941406 148.789062 224.648438 148.351562 C 224.359375 147.917969 224.113281 147.460938 223.914062 146.976562 C 223.714844 146.496094 223.5625 145.996094 223.460938 145.484375 C 223.359375 144.972656 223.308594 144.453125 223.308594 143.933594 C 223.308594 143.410156 223.359375 142.890625 223.460938 142.378906 C 223.5625 141.867188 223.714844 141.371094 223.914062 140.886719 C 224.113281 140.40625 224.359375 139.945312 224.648438 139.511719 C 224.941406 139.078125 225.269531 138.675781 225.640625 138.304688 C 226.007812 137.9375 226.410156 137.605469 226.84375 137.316406 C 227.28125 137.027344 227.738281 136.78125 228.222656 136.582031 C 228.703125 136.378906 229.203125 136.230469 229.714844 136.128906 C 230.226562 136.027344 230.742188 135.976562 231.265625 135.976562 C 231.789062 135.976562 232.304688 136.027344 232.820312 136.128906 C 233.332031 136.230469 233.828125 136.378906 234.3125 136.582031 C 234.792969 136.78125 235.253906 137.027344 235.6875 137.316406 C 236.121094 137.605469 236.523438 137.9375 236.894531 138.304688 C 237.261719 138.675781 237.59375 139.078125 237.882812 139.511719 C 238.171875 139.945312 238.417969 140.40625 238.617188 140.886719 C 238.816406 141.371094 238.96875 141.867188 239.070312 142.378906 C 239.171875 142.890625 239.222656 143.410156 239.222656 143.933594 Z M 239.222656 143.933594 " fill-opacity="1" fill-rule="nonzero"/></svg>