<svg xmlns="http://www.w3.org/2000/svg" xmlns:xlink="http://www.w3.org/1999/xlink" width="500" zoomAndPan="magnify" viewBox="0 0 375 374.999991" height="500" preserveAspectRatio="xMidYMid meet" version="1.0"><defs><clipPath id="78da3b9d97"><path d="M 112.5 112.5 L 262.5 112.5 L 262.5 262.5 L 112.5 262.5 Z M 112.5 112.5 " clip-rule="nonzero"/></clipPath></defs><path fill="#f5f5f5" d="M 147.46875 166.902344 L 158.5625 166.902344 C 158.847656 166.902344 159.117188 166.953125 159.378906 167.0625 C 159.640625 167.171875 159.867188 167.324219 160.066406 167.523438 C 160.269531 167.722656 160.421875 167.953125 160.53125 168.214844 C 160.636719 168.476562 160.691406 168.746094 160.691406 169.027344 L 160.691406 230.054688 C 160.691406 230.335938 160.636719 230.605469 160.53125 230.867188 C 160.421875 231.128906 160.269531 231.359375 160.066406 231.558594 C 159.867188 231.757812 159.640625 231.910156 159.378906 232.019531 C 159.117188 232.125 158.847656 232.179688 158.5625 232.179688 L 147.46875 232.179688 C 147.1875 232.179688 146.914062 232.125 146.65625 232.019531 C 146.394531 231.910156 146.164062 231.757812 145.964844 231.558594 C 145.765625 231.359375 145.613281 231.128906 145.503906 230.867188 C 145.394531 230.605469 145.339844 230.335938 145.339844 230.054688 L 145.339844 169.027344 C 145.339844 168.746094 145.394531 168.476562 145.503906 168.214844 C 145.613281 167.953125 145.765625 167.722656 145.964844 167.523438 C 146.164062 167.324219 146.394531 167.171875 146.65625 167.0625 C 146.914062 166.953125 147.1875 166.902344 147.46875 166.902344 Z M 147.46875 166.902344 " fill-opacity="1" fill-rule="nonzero"/><path fill="#f5f5f5" d="M 161.953125 151.847656 C 161.9375 146.613281 158.183594 142.820312 153.015625 142.820312 C 147.851562 142.820312 143.953125 146.714844 143.953125 151.882812 C 143.953125 154.285156 144.832031 156.523438 146.421875 158.179688 C 148.058594 159.878906 150.3125 160.816406 152.765625 160.816406 C 155.484375 160.816406 157.910156 159.859375 159.597656 158.109375 C 161.179688 156.472656 162.015625 154.265625 161.953125 151.882812 C 161.953125 151.871094 161.953125 151.863281 161.953125 151.847656 Z M 161.953125 151.847656 " fill-opacity="1" fill-rule="nonzero"/><path fill="#f5f5f5" d="M 222.722656 171.195312 C 217.199219 166.253906 210.726562 165.515625 207.359375 165.515625 C 202.324219 165.515625 197.53125 166.859375 193.488281 169.402344 C 191.722656 170.515625 190.128906 171.835938 188.703125 173.359375 L 188.421875 168.890625 C 188.40625 168.621094 188.339844 168.363281 188.226562 168.117188 C 188.109375 167.871094 187.953125 167.65625 187.753906 167.472656 C 187.558594 167.285156 187.332031 167.144531 187.082031 167.046875 C 186.828125 166.945312 186.566406 166.894531 186.296875 166.898438 L 176.46875 166.898438 C 176.171875 166.898438 175.886719 166.957031 175.617188 167.074219 C 175.34375 167.191406 175.109375 167.359375 174.90625 167.578125 C 174.707031 167.792969 174.558594 168.042969 174.457031 168.320312 C 174.359375 168.601562 174.324219 168.890625 174.347656 169.183594 C 174.695312 173.839844 174.84375 178.734375 174.84375 185.542969 L 174.84375 230.054688 C 174.84375 230.335938 174.898438 230.605469 175.003906 230.867188 C 175.113281 231.128906 175.265625 231.359375 175.464844 231.558594 C 175.667969 231.757812 175.894531 231.910156 176.15625 232.019531 C 176.417969 232.125 176.6875 232.179688 176.972656 232.179688 L 188.066406 232.179688 C 188.347656 232.179688 188.621094 232.125 188.882812 232.019531 C 189.140625 231.910156 189.371094 231.757812 189.570312 231.558594 C 189.769531 231.359375 189.925781 231.128906 190.03125 230.867188 C 190.140625 230.605469 190.195312 230.335938 190.195312 230.054688 L 190.195312 193.363281 C 190.195312 191.636719 190.421875 190.019531 190.824219 188.921875 C 190.835938 188.886719 190.847656 188.851562 190.859375 188.8125 C 192.359375 183.921875 196.910156 178.972656 203.699219 178.972656 C 207.902344 178.972656 210.921875 180.410156 212.925781 183.363281 C 214.734375 186.039062 215.691406 190.019531 215.691406 194.875 L 215.691406 230.054688 C 215.691406 230.335938 215.746094 230.605469 215.851562 230.867188 C 215.960938 231.128906 216.113281 231.359375 216.316406 231.558594 C 216.515625 231.757812 216.746094 231.910156 217.003906 232.019531 C 217.265625 232.125 217.535156 232.179688 217.820312 232.179688 L 228.914062 232.179688 C 229.195312 232.179688 229.46875 232.125 229.730469 232.019531 C 229.988281 231.910156 230.21875 231.757812 230.417969 231.558594 C 230.617188 231.359375 230.773438 231.128906 230.878906 230.867188 C 230.988281 230.605469 231.042969 230.335938 231.042969 230.054688 L 231.042969 193.613281 C 231.042969 188.421875 230.257812 183.824219 228.710938 179.9375 C 227.320312 176.445312 225.304688 173.503906 222.722656 171.195312 Z M 222.722656 171.195312 " fill-opacity="1" fill-rule="nonzero"/><g clip-path="url(#78da3b9d97)"><path fill="#f5f5f5" d="M 242.972656 112.5 L 132.027344 112.5 C 121.257812 112.5 112.5 121.261719 112.5 132.027344 L 112.5 242.972656 C 112.5 253.738281 121.257812 262.5 132.027344 262.5 L 242.972656 262.5 C 253.738281 262.5 262.5 253.738281 262.5 242.972656 L 262.5 132.027344 C 262.5 121.261719 253.738281 112.5 242.972656 112.5 Z M 248.789062 132.972656 L 248.789062 242.027344 C 248.789062 242.46875 248.742188 242.910156 248.65625 243.34375 C 248.570312 243.78125 248.441406 244.203125 248.273438 244.613281 C 248.101562 245.023438 247.894531 245.414062 247.644531 245.78125 C 247.398438 246.152344 247.121094 246.492188 246.804688 246.804688 C 246.492188 247.121094 246.152344 247.398438 245.78125 247.644531 C 245.414062 247.894531 245.023438 248.101562 244.613281 248.273438 C 244.203125 248.441406 243.78125 248.570312 243.34375 248.65625 C 242.910156 248.742188 242.46875 248.789062 242.027344 248.789062 L 132.972656 248.789062 C 132.53125 248.789062 132.089844 248.742188 131.65625 248.65625 C 131.21875 248.570312 130.796875 248.441406 130.386719 248.273438 C 129.976562 248.101562 129.585938 247.894531 129.21875 247.644531 C 128.847656 247.398438 128.507812 247.121094 128.195312 246.804688 C 127.878906 246.492188 127.601562 246.148438 127.355469 245.78125 C 127.105469 245.414062 126.898438 245.023438 126.726562 244.613281 C 126.558594 244.203125 126.429688 243.78125 126.34375 243.34375 C 126.257812 242.910156 126.210938 242.46875 126.210938 242.027344 L 126.210938 132.972656 C 126.210938 132.53125 126.257812 132.089844 126.34375 131.65625 C 126.429688 131.21875 126.558594 130.796875 126.726562 130.386719 C 126.898438 129.976562 127.105469 129.585938 127.355469 129.21875 C 127.601562 128.847656 127.878906 128.507812 128.195312 128.195312 C 128.507812 127.878906 128.847656 127.601562 129.21875 127.355469 C 129.585938 127.105469 129.976562 126.898438 130.386719 126.726562 C 130.796875 126.558594 131.21875 126.429688 131.65625 126.34375 C 132.089844 126.257812 132.53125 126.210938 132.972656 126.210938 L 242.027344 126.210938 C 242.46875 126.210938 242.910156 126.257812 243.34375 126.34375 C 243.78125 126.429688 244.203125 126.558594 244.613281 126.726562 C 245.023438 126.898438 245.414062 127.105469 245.78125 127.355469 C 246.148438 127.601562 246.492188 127.878906 246.804688 128.195312 C 247.121094 128.507812 247.398438 128.847656 247.644531 129.21875 C 247.894531 129.585938 248.101562 129.976562 248.273438 130.386719 C 248.441406 130.796875 248.570312 131.21875 248.65625 131.65625 C 248.742188 132.089844 248.789062 132.53125 248.789062 132.972656 Z M 248.789062 132.972656 " fill-opacity="1" fill-rule="nonzero"/></g></svg>